<svg width="100" height="60" viewBox="0 0 100 60" fill="none" xmlns="http://www.w3.org/2000/svg">
<path fill-rule="evenodd" clip-rule="evenodd" d="M24.2043 50.5318C24.6337 49.0385 25.1003 47.3585 25.6043 45.4918C25.9033 44.4242 26.2083 43.3474 26.5194 42.2615C26.6021 41.973 26.6852 41.6838 26.7687 41.3939C26.9205 40.8674 27.0737 40.3386 27.2283 39.8078H27.5083C27.7773 39.8078 28.1826 39.7926 28.7242 39.7624L28.9083 39.7518C29.0423 39.74 29.18 39.7261 29.3215 39.7101C29.7251 39.6645 30.1592 39.602 30.6238 39.5225L30.6268 39.522C30.7697 39.4975 30.9156 39.4715 31.0643 39.4438C31.8857 39.2758 32.707 39.0518 33.5283 38.7718C33.6652 38.722 33.8006 38.6699 33.9344 38.6154L33.9508 38.6087C34.6136 38.3378 35.2381 38.0095 35.8243 37.6238C36.2418 37.3381 36.6108 37.0169 36.9313 36.6601L36.9442 36.6457C37.1631 36.4004 37.3591 36.1385 37.5323 35.8598C37.9617 35.1505 38.1763 34.3105 38.1763 33.3398C38.1763 33.1774 38.1693 33.0188 38.1552 32.8638C38.0915 32.1634 37.8839 31.538 37.5323 30.9878C37.2364 30.5247 36.8741 30.1147 36.4452 29.758L36.4291 29.7446C36.2403 29.5888 36.0387 29.4432 35.8243 29.3078C35.2463 28.9275 34.6187 28.6278 33.9414 28.4086L33.9237 28.4029C33.7756 28.3554 33.6251 28.3117 33.4723 28.2718C32.9968 28.145 32.5242 28.0541 32.0546 27.999C31.7795 27.9668 31.5054 27.9469 31.2323 27.9393C31.1482 27.937 31.0642 27.9358 30.9803 27.9358C30.6979 27.9358 30.4167 27.9467 30.1367 27.9685C29.9015 27.9868 29.667 28.0128 29.4335 28.0465C29.3624 28.0568 29.2915 28.0677 29.2206 28.0794C29.0319 28.1105 28.8439 28.1466 28.6563 28.1878C28.6053 28.199 28.5546 28.2103 28.504 28.2219C28.1423 28.3043 27.7912 28.3952 27.4507 28.4945C27.4051 28.5078 27.3597 28.5213 27.3144 28.5349L27.3024 28.5385C27.0746 28.6073 26.8516 28.6799 26.6335 28.7564C26.5889 28.772 26.5445 28.7878 26.5003 28.8038C26.3905 28.8446 26.2831 28.8848 26.1781 28.9245C26.07 28.9654 25.9645 29.0057 25.8615 29.0454L25.8486 29.0504L25.8346 29.0558L25.7943 29.0714L25.6603 29.1236L25.641 29.1312C25.3342 29.2514 25.0513 29.3662 24.7923 29.4758C24.7923 29.5524 24.8301 29.6416 24.9055 29.7434C24.922 29.7656 24.9403 29.7884 24.9603 29.8118C25.0723 29.9238 25.1937 30.0265 25.3243 30.1198C25.4737 30.1945 25.5857 30.2318 25.6603 30.2318C25.7723 30.2318 25.9963 30.1385 26.3323 29.9518C26.4752 29.8645 26.6366 29.7738 26.8166 29.6797L26.8242 29.6758C26.8702 29.6518 26.9174 29.6276 26.9659 29.6031C27.1716 29.4993 27.3991 29.3915 27.6483 29.2798C28.0036 29.114 28.3888 28.9745 28.8042 28.8613L28.8623 28.8457C29.0839 28.787 29.3139 28.7357 29.5523 28.6918C29.3734 29.091 29.1983 29.4863 29.0273 29.8776C28.9824 29.9802 28.9379 30.0824 28.8936 30.1844C28.762 30.4876 28.6328 30.7883 28.506 31.0866C28.242 31.7078 27.9883 32.3185 27.745 32.9189C27.6841 33.0692 27.6239 33.2188 27.5643 33.3678C26.9908 34.8478 26.4448 36.3278 25.9263 37.8078L25.9123 37.8478C25.7969 38.1775 25.6815 38.5094 25.5662 38.8437C25.5161 38.9887 25.466 39.1341 25.416 39.2799C25.1647 40.0121 24.9134 40.7551 24.6621 41.5089L24.6084 41.67C24.5204 41.9346 24.4324 42.2005 24.3443 42.4678C23.8217 44.0545 23.2617 45.7625 22.6643 47.5918C22.5897 47.8345 22.5057 48.0958 22.4123 48.3758C22.319 48.6745 22.2723 48.9265 22.2723 49.1318C22.2723 49.3078 22.3101 49.4701 22.3855 49.6187C22.4861 49.8168 22.6537 49.9905 22.8883 50.1398C22.9018 50.1484 22.9153 50.1568 22.9288 50.1651C23.3278 50.4096 23.753 50.5318 24.2043 50.5318ZM27.5083 39.3496C27.9569 39.3199 28.4072 39.2688 28.8593 39.1963L28.8755 39.1937C29.086 39.1597 29.2968 39.1212 29.5081 39.078C29.8206 39.014 30.1341 38.94 30.4483 38.8558C30.6066 38.8141 30.7627 38.7698 30.9169 38.7228L30.9295 38.719C31.7296 38.4739 32.4741 38.1565 33.1628 37.7665L33.1819 37.7557C33.2418 37.7216 33.3013 37.687 33.3603 37.6518C33.9713 37.2748 34.5008 36.839 34.9489 36.3443L34.9683 36.3227C35.1561 36.1135 35.3295 35.8939 35.4883 35.6638C35.6561 35.4151 35.7978 35.1538 35.9136 34.88L35.9224 34.859C36.1182 34.3894 36.238 33.8829 36.2816 33.3398C36.2941 33.1841 36.3003 33.0255 36.3003 32.8638C36.3003 32.4966 36.2681 32.1542 36.2037 31.8366C36.0913 31.2822 35.8809 30.8033 35.5723 30.3998C35.4946 30.2941 35.4125 30.1931 35.326 30.0968L35.314 30.0834C34.883 29.6077 34.3438 29.2464 33.6963 28.9998C33.5722 28.9483 33.4465 28.901 33.3194 28.8579L33.3163 28.8568C32.835 28.6938 32.3325 28.5906 31.8089 28.5473C31.6194 28.5316 31.4273 28.5238 31.2323 28.5238C31.148 28.6901 31.064 28.8604 30.9803 29.0347C30.9415 29.1155 30.9028 29.1972 30.8641 29.2798C30.7628 29.4958 30.662 29.7178 30.5616 29.9456C30.1047 30.9823 29.6563 32.1417 29.2163 33.4238C29.1575 33.5952 29.0989 33.7672 29.0406 33.9398L29.0351 33.9561C28.6663 35.0472 28.3067 36.1624 27.9561 37.3018C27.9049 37.4682 27.8539 37.6351 27.8031 37.8025C27.7386 38.0149 27.6745 38.2281 27.6106 38.4422C27.5764 38.5568 27.5423 38.6717 27.5083 38.7868C27.4521 38.9771 27.3961 39.1681 27.3403 39.3598C27.396 39.3568 27.4526 39.3533 27.5083 39.3496Z" fill="black"/>
<path fill-rule="evenodd" clip-rule="evenodd" d="M91.9525 45.8588L91.9559 45.8103C91.9751 45.5559 92.0149 45.2974 92.0753 45.0347C92.1052 44.9048 92.1402 44.7738 92.1801 44.6418C92.2323 44.4695 92.2931 44.2955 92.3624 44.1198C92.4632 43.8741 92.5693 43.6327 92.6807 43.3956L92.6868 43.3826C92.9039 42.9216 93.1411 42.4766 93.3985 42.0478C93.4736 41.9226 93.5467 41.8001 93.6177 41.6803L93.6396 41.6434C93.8608 41.2699 94.0619 40.9234 94.2427 40.6038C94.271 40.5537 94.2989 40.5043 94.3262 40.4555L94.3467 40.4189L94.4064 40.3118C94.7051 39.8078 94.8545 39.4438 94.8545 39.2198C94.8545 39.0145 94.7891 38.8651 94.6585 38.7718C94.5465 38.6598 94.4064 38.6038 94.2384 38.6038C93.8651 38.6038 93.4825 38.8091 93.0905 39.2198C93.0269 39.2833 92.9639 39.35 92.9014 39.4199L92.8769 39.4474L92.8683 39.4573C92.5568 39.812 92.2575 40.2461 91.9705 40.7598C91.913 40.8683 91.8566 40.9783 91.8013 41.0895C91.5334 41.6289 91.2911 42.2003 91.0744 42.8038C90.9888 43.0363 90.9082 43.2657 90.8326 43.4921L90.8256 43.5131C90.7508 43.7376 90.6811 43.9592 90.6162 44.1778C90.4232 44.5064 90.2277 44.8077 90.0297 45.0817L90.0247 45.0885C89.9549 45.185 89.8848 45.278 89.8143 45.3677C89.7521 45.4468 89.6897 45.5233 89.627 45.5972C89.5058 45.74 89.3838 45.8728 89.2608 45.9958C89.2238 46.034 89.1869 46.0717 89.1499 46.1089C89.0237 46.236 88.8974 46.3569 88.7711 46.4718C88.7333 46.5063 88.6954 46.5401 88.6575 46.5735C88.5136 46.7002 88.3697 46.8191 88.2259 46.93C88.0295 47.0813 87.8332 47.2179 87.6368 47.3398C87.5333 47.404 87.4298 47.4679 87.3264 47.5314L87.1621 47.6321C87.0505 47.7002 86.9389 47.7679 86.8273 47.8353C86.5558 47.9991 86.2843 48.1606 86.0128 48.3198C86.2069 47.7375 86.3916 47.1583 86.5671 46.5823L86.572 46.5661L86.5737 46.5606C86.5989 46.4776 86.6239 46.3947 86.6488 46.3118L86.6584 46.2798C86.6933 46.1632 86.7278 46.0467 86.762 45.9303C86.8122 45.7591 86.8617 45.588 86.9103 45.4173L86.9368 45.3238C87.026 45.0086 87.1105 44.701 87.1902 44.401C87.3049 43.9695 87.4097 43.5537 87.5048 43.1536C87.5473 42.9745 87.5879 42.7986 87.6265 42.6258L87.6368 42.5798L87.6422 42.5572C87.7812 41.9746 87.8943 41.4569 87.9815 41.004C88.0214 40.7971 88.0558 40.6037 88.0848 40.4238C88.0946 40.3718 88.1039 40.3212 88.1128 40.2722C88.1416 40.1134 88.166 39.9703 88.1859 39.8427C88.2305 39.557 88.2528 39.3494 88.2528 39.2198C88.2528 38.9771 88.1875 38.7811 88.0568 38.6318C87.9448 38.4638 87.7861 38.3798 87.5808 38.3798C87.3008 38.3798 87.0395 38.5665 86.7968 38.9398C86.7401 39.027 86.6834 39.1204 86.6267 39.2198C86.544 39.3649 86.4613 39.523 86.3785 39.6942C86.3208 39.8136 86.2631 39.9393 86.2054 40.0714L86.1854 40.1174C86.1465 40.2074 86.1076 40.3001 86.0688 40.3958L86.0528 40.4384C85.9082 40.8237 85.7558 41.2244 85.5957 41.6406L85.5299 41.8115L85.452 42.0131L85.3663 42.234L85.3408 42.2998C85.2021 42.6732 85.0512 43.0344 84.8881 43.3835L84.8772 43.4068L84.8697 43.4227C84.8503 43.464 84.8307 43.505 84.8109 43.5459L84.8059 43.5563L84.774 43.5318L84.7711 43.5394C84.7549 43.5816 84.7386 43.6236 84.722 43.6653C84.6901 43.7456 84.6574 43.8251 84.6239 43.9037L84.5992 43.9611L84.5898 43.9827C84.5605 44.038 84.5308 44.0931 84.5008 44.1478L84.5094 44.1621C84.3161 44.5822 84.0985 44.9779 83.8564 45.3492C83.7705 45.4809 83.6816 45.6095 83.5896 45.735L83.5851 45.7411C83.4641 45.906 83.3377 46.0655 83.206 46.2198C83.172 46.2596 83.1379 46.2989 83.1037 46.3377C83.0583 46.3891 83.0127 46.4396 82.9669 46.4893L82.9631 46.4934C82.3778 47.1267 81.7495 47.6235 81.078 47.9838C80.8978 48.0829 80.7176 48.1701 80.5373 48.2453C79.9709 48.4816 79.4045 48.5998 78.838 48.5998C78.6005 48.5998 78.3858 48.5785 78.194 48.536C77.7378 48.4349 77.4111 48.2135 77.214 47.8718C77.1687 47.7933 77.1271 47.7136 77.0891 47.6327C76.8924 47.2132 76.794 46.7609 76.794 46.2758C76.794 46.2109 76.7952 46.1455 76.7977 46.0798C76.7995 46.0314 76.802 45.9828 76.8052 45.934L76.8061 45.92C76.8125 45.8257 76.8213 45.7307 76.8326 45.6348C76.8549 45.4457 76.8869 45.2534 76.9286 45.0578C76.9742 44.8442 77.0313 44.6267 77.0999 44.4054C77.135 44.2926 77.173 44.1787 77.214 44.0638L77.2217 44.0437L77.2284 44.0261C77.4916 43.3417 77.8119 42.6858 78.1893 42.0585C78.2079 42.0276 78.2267 41.9967 78.2455 41.9659C78.2747 41.9184 78.3042 41.871 78.334 41.8238C78.4673 41.6212 78.6029 41.4292 78.7408 41.2479C79.0185 40.8827 79.3055 40.5608 79.6017 40.2822L79.6183 40.2666C79.6844 40.2048 79.751 40.1452 79.818 40.0878C80.2895 39.6976 80.7468 39.4773 81.19 39.427C81.2557 39.4195 81.321 39.4158 81.386 39.4158C81.6287 39.4158 81.7873 39.4811 81.862 39.6118C81.9049 39.6633 81.938 39.7266 81.9612 39.8018C81.9884 39.8901 82.002 39.9948 82.002 40.1158C82.002 40.3058 81.98 40.5018 81.9361 40.7038C81.9321 40.7221 81.9279 40.7404 81.9236 40.7588C81.8875 40.9117 81.839 41.0679 81.778 41.2275C81.7522 41.295 81.7242 41.3631 81.694 41.4318L81.6922 41.4357L81.674 41.4747C81.5595 41.7163 81.4337 41.9125 81.2966 42.0634C81.1929 42.1774 81.0827 42.2656 80.966 42.3278C81.19 42.6078 81.4607 42.7478 81.778 42.7478C82.2073 42.7478 82.5433 42.5425 82.786 42.1318C82.8187 42.0804 82.8494 42.0279 82.878 41.9745L82.8874 41.9569C83.0811 41.5876 83.178 41.1699 83.178 40.7038C83.178 40.5046 83.1544 40.3086 83.1073 40.1158C83.0395 39.8386 82.9231 39.568 82.758 39.3038C82.7262 39.2529 82.6912 39.2049 82.6531 39.1597C82.6188 39.119 82.5819 39.0807 82.5425 39.0447C82.2746 38.8003 81.8891 38.6644 81.386 38.637C81.3225 38.6335 81.2572 38.6318 81.19 38.6318C80.5053 38.6318 79.8118 38.8318 79.1097 39.2319L79.0927 39.2416C79.0732 39.2529 79.0536 39.2642 79.034 39.2758C78.3658 39.6527 77.7527 40.1554 77.1946 40.784C77.1446 40.8402 77.0951 40.8975 77.046 40.9558L77.0348 40.9691L77.0161 40.9915C76.4325 41.692 75.9571 42.4828 75.59 43.3638C75.5805 43.3873 75.5711 43.4108 75.5619 43.4344L75.5484 43.4689C75.3891 43.8805 75.2685 44.2983 75.1869 44.7222C75.0837 44.9083 74.9761 45.0875 74.8642 45.2599C74.7941 45.3679 74.7222 45.4733 74.6487 45.576C74.5784 45.6741 74.5066 45.7697 74.4332 45.8628L74.4325 45.8637L74.426 45.8719C74.3701 45.9426 74.3133 46.0119 74.2556 46.0798C74.1428 46.2125 74.0265 46.3398 73.9068 46.4616C73.8374 46.5322 73.7669 46.6009 73.6952 46.6678C73.5069 46.8394 73.3176 47.0002 73.1273 47.1502C72.9689 47.2752 72.8097 47.3927 72.65 47.5027L72.6429 47.5076C72.4012 47.6736 72.158 47.8225 71.9134 47.9543C71.8662 47.9796 71.819 48.0044 71.7718 48.0285C71.5554 48.1389 71.3379 48.236 71.1192 48.3198C71.2198 48.0642 71.317 47.81 71.411 47.5573L71.4182 47.538C71.568 47.1343 71.7095 46.7343 71.8425 46.3378L71.8564 46.2964L71.894 46.1834L71.8993 46.1672L71.9008 46.1627C71.9898 45.8933 72.0748 45.6257 72.156 45.3596C72.1764 45.2927 72.1966 45.2258 72.2165 45.1591C72.2336 45.1019 72.2505 45.0448 72.2672 44.9878C72.2934 44.9032 72.3192 44.8195 72.3444 44.7367L72.373 44.6422L72.3886 44.5905C72.4445 44.4046 72.4978 44.223 72.5484 44.0459C72.595 43.883 72.6393 43.7238 72.6814 43.5684C72.7419 43.345 72.7978 43.1293 72.849 42.9212L72.8761 42.8101C72.908 42.6782 72.938 42.5494 72.966 42.4238L72.9882 42.3234L72.9952 42.2913L73.016 42.1942L73.0232 42.1598L73.0334 42.1148C73.0562 42.0137 73.0776 41.9166 73.0975 41.8236L73.103 41.7979C73.2365 41.1717 73.3032 40.7323 73.3032 40.4798C73.1912 40.4425 73.0885 40.4238 72.9952 40.4238C72.9019 40.4051 72.8085 40.3958 72.7152 40.3958C72.5298 40.3958 72.3635 40.4238 72.2164 40.4798C71.9932 40.5647 71.8142 40.714 71.6792 40.9278C71.4883 41.2402 71.3619 41.5203 71.3001 41.7682L71.293 41.7977L71.2872 41.8238C71.2499 42.0478 71.2032 42.2718 71.1472 42.4958C71.1099 42.7011 71.0632 42.9065 71.0072 43.1118C70.8589 43.3566 70.7046 43.5954 70.5445 43.8284L70.5171 43.8681C70.4773 43.9255 70.4373 43.9826 70.3968 44.0392C70.3691 44.0781 70.3412 44.1168 70.3131 44.1553C70.1402 44.3925 69.9609 44.6234 69.7752 44.8478C69.3459 45.3891 68.9072 45.8371 68.4592 46.1918C68.4136 46.2275 68.3683 46.2613 68.3235 46.2933C68.239 46.3535 68.1558 46.4071 68.0743 46.4538C67.7927 46.6151 67.529 46.6958 67.2832 46.6958C67.0238 46.6958 66.8185 46.6462 66.6672 46.5471C66.6008 46.5035 66.5448 46.4504 66.4992 46.3878C66.4368 46.302 66.3874 46.2047 66.3511 46.0961C66.3327 46.0412 66.3177 45.9833 66.306 45.9226C66.2995 45.8887 66.294 45.8539 66.2895 45.8182C66.28 45.7416 66.2752 45.6608 66.2752 45.5758L66.2753 45.5478C66.2755 45.5226 66.276 45.4972 66.2768 45.4714C66.278 45.4341 66.2798 45.3961 66.2821 45.3574C66.2945 45.1555 66.3234 44.9347 66.3688 44.695C66.3931 44.5664 66.4223 44.4322 66.4562 44.2927L66.4712 44.2318L66.4758 44.2134L66.4874 44.1676C66.6149 43.6656 66.7682 43.155 66.9472 42.6358C66.978 42.5517 67.0089 42.4688 67.0397 42.3872C67.1814 42.0124 67.3231 41.6643 67.4647 41.3429C67.4976 41.2684 67.5304 41.1954 67.5632 41.1238C67.5779 41.0918 67.5924 41.0603 67.6069 41.0293C67.7951 40.627 67.9672 40.3131 68.1232 40.0878C68.1232 39.9758 68.0299 39.8731 67.8432 39.7798C67.6898 39.6775 67.5208 39.5986 67.3363 39.543C67.3187 39.5377 67.301 39.5327 67.2832 39.5278C67.0965 39.4718 66.9659 39.4438 66.8912 39.4438C66.7921 39.4438 66.6844 39.4938 66.5679 39.5937C66.443 39.7009 66.3081 39.8656 66.1632 40.0878C66.1502 40.1078 66.1372 40.128 66.1242 40.1484C66.0741 40.2273 66.0244 40.3098 65.9749 40.3958C65.7614 40.7674 65.5535 41.206 65.3512 41.7118C65.3118 41.8102 65.2733 41.909 65.2357 42.0082L65.2232 42.0413C65.016 42.5905 64.8346 43.1527 64.6792 43.7278L64.6665 43.7806C64.618 43.9838 64.5769 44.1797 64.5431 44.3682C64.4814 44.4707 64.4149 44.5751 64.3436 44.6814C64.2763 44.7818 64.2047 44.884 64.1288 44.9878C64.0894 45.0397 64.0493 45.0914 64.0087 45.1429C63.9373 45.2334 63.8641 45.3232 63.7891 45.4122C63.7509 45.4576 63.7122 45.5028 63.673 45.5478C63.5761 45.6593 63.4763 45.7696 63.3736 45.8789L63.3688 45.884C63.2263 46.0354 63.0783 46.1847 62.9248 46.3318C62.8018 46.4497 62.6774 46.5619 62.5516 46.6685C62.2192 46.9502 61.8769 47.1927 61.5248 47.3958C61.4708 47.4282 61.4168 47.4588 61.363 47.4875L61.3559 47.4913C60.9476 47.7076 60.5466 47.8158 60.1528 47.8158C59.9288 47.8158 59.7328 47.7598 59.5648 47.6478C59.5088 47.6105 59.4622 47.5607 59.4248 47.4985C59.3533 47.3793 59.316 47.2144 59.313 47.0038L59.3128 46.9758C59.3128 46.9497 59.3133 46.9234 59.3143 46.8967C59.3153 46.8713 59.3166 46.8457 59.3185 46.8197C59.3367 46.5637 59.3988 46.2819 59.5049 45.9746C59.5462 45.8549 59.5942 45.7313 59.6488 45.6038C59.8625 45.1435 60.069 44.6615 60.2682 44.1577L60.2789 44.1308C60.3023 44.0714 60.3256 44.0118 60.3488 43.9518C60.5915 43.3731 60.7128 42.8038 60.7128 42.2438C60.7128 42.0763 60.7011 41.9177 60.6776 41.7678C60.6174 41.3831 60.4798 41.0565 60.2648 40.7878C59.9848 40.3958 59.6582 40.0691 59.2848 39.8078C59.2188 39.7583 59.1539 39.7099 59.0902 39.6627L59.0407 39.6261C58.9897 39.5885 58.9395 39.5516 58.8901 39.5155C58.6706 39.3552 58.4662 39.21 58.2768 39.0798C58.141 38.9711 58.0381 38.858 57.9681 38.7405C57.948 38.7068 57.9306 38.6726 57.916 38.6381C57.9033 38.6083 57.8927 38.5782 57.8841 38.5478C57.8659 38.4837 57.8568 38.4183 57.8568 38.3518C57.8568 38.3262 57.8666 38.2791 57.8861 38.2105C57.9038 38.1486 57.9293 38.0691 57.9629 37.9722C57.9734 37.9418 57.9847 37.9097 57.9968 37.8758C58.0218 37.8134 58.0439 37.7557 58.0633 37.7026C58.131 37.5173 58.1648 37.3883 58.1648 37.3158C58.1648 37.2225 58.1462 37.0918 58.1088 36.9238C58.0902 36.7371 57.9782 36.6438 57.7728 36.6438C57.6486 36.6438 57.4662 36.7666 57.2256 37.0121C57.2035 37.0347 57.1809 37.0583 57.1577 37.083C57.1416 37.1003 57.1251 37.118 57.1085 37.1363L57.0973 37.1486L57.0728 37.1758C57.0325 37.2208 56.9948 37.2675 56.9597 37.3158C56.9326 37.353 56.9071 37.3911 56.883 37.4303C56.875 37.4433 56.8672 37.4564 56.8596 37.4696C56.7421 37.6727 56.664 37.9013 56.6253 38.1554C56.6156 38.2193 56.6083 38.2847 56.6036 38.3518C56.5991 38.4157 56.5968 38.481 56.5968 38.5478C56.5968 38.7835 56.6727 38.9888 56.8246 39.1638C56.8411 39.1828 56.8585 39.2015 56.8768 39.2198C56.853 39.2891 56.8292 39.3579 56.8053 39.4263C56.777 39.5074 56.7486 39.5879 56.7202 39.6678C56.66 39.837 56.5996 40.0035 56.5391 40.1672C56.3547 40.6654 56.1686 41.1378 55.9806 41.5845C55.8601 41.8708 55.7388 42.1466 55.6168 42.4118L55.5514 42.56C55.3135 43.0972 55.1017 43.5562 54.916 43.937L54.9068 43.9558C54.8789 44.0128 54.8516 44.068 54.825 44.1215C54.3749 44.9711 53.8833 45.7063 53.3501 46.3271L53.3454 46.3326C53.1192 46.5955 52.8856 46.8379 52.6445 47.0598C52.1575 47.5078 51.6655 47.8389 51.1684 48.0532C50.7127 48.2496 50.2527 48.3478 49.7885 48.3478C49.4648 48.3478 49.1941 48.2917 48.9764 48.1794C48.8175 48.0975 48.6869 47.9856 48.5845 47.8438C48.5181 47.7468 48.4608 47.633 48.4125 47.5024C48.3238 47.2623 48.2658 46.9654 48.2386 46.6118C48.2265 46.455 48.2205 46.287 48.2205 46.1078C48.2205 46.0191 48.2217 45.9303 48.224 45.8412L48.2263 45.7689C48.2274 45.7354 48.2287 45.7019 48.2302 45.6683C48.2383 45.4848 48.2515 45.3002 48.2697 45.1148C48.2883 44.9254 48.3121 44.7351 48.3413 44.5437C48.3696 44.3575 48.403 44.1705 48.4413 43.9824L48.4447 43.9659C48.5065 43.6649 48.5811 43.3615 48.6685 43.0558C48.8351 42.4724 49.0222 41.8977 49.2295 41.3318L49.2348 41.3173C49.347 41.0117 49.4652 40.7087 49.5892 40.4082C49.6451 40.2729 49.7022 40.1381 49.7605 40.0038H50.1805H50.1844L50.1879 40.0038C50.3128 40.0037 50.441 40.0026 50.5725 40.0004C50.7442 39.9975 50.9216 39.9928 51.1045 39.9862C51.2137 39.9823 51.3249 39.9777 51.4381 39.9724C51.6176 39.9641 51.8021 39.9541 51.9916 39.9424C52.1048 39.9355 52.2197 39.9279 52.3364 39.9198C52.5668 39.9041 52.8052 39.8862 53.0517 39.8661C53.5273 39.8273 54.0334 39.7802 54.5691 39.725C54.6546 39.7162 54.7408 39.7072 54.8278 39.698C54.9205 39.6882 55.014 39.6781 55.1085 39.6678V39.1638L55.0541 39.1696C54.9573 39.1799 54.8605 39.1896 54.7637 39.1987L54.6697 39.2075C54.1493 39.2548 53.6289 39.2862 53.1085 39.3017L53.0365 39.3038C52.7856 39.3108 52.5387 39.3164 52.2956 39.3208L52.2931 39.3208C51.8859 39.3281 51.4897 39.3318 51.1045 39.3318H50.0685C50.1057 39.2522 50.143 39.1729 50.1805 39.0941C50.3059 38.8298 50.4324 38.5699 50.5599 38.3145L50.5725 38.2893C50.6215 38.1912 50.6707 38.0938 50.7201 37.997C50.8349 37.7717 50.9506 37.5499 51.067 37.3318C51.108 37.255 51.1491 37.1787 51.1903 37.1028L51.1968 37.0908C51.3788 36.7558 51.5626 36.4295 51.7485 36.1118C52.0267 35.6361 52.2834 35.1928 52.5184 34.7818L52.5255 34.7694C52.7765 34.3305 53.0028 33.9286 53.2045 33.5638C53.2389 33.4998 53.2719 33.4373 53.3033 33.3765C53.3378 33.3097 53.3705 33.2449 53.4013 33.1819L53.4029 33.1789C53.6626 32.6485 53.7924 32.2541 53.7924 31.9958C53.7924 31.7905 53.7271 31.6411 53.5965 31.5478C53.4845 31.4358 53.3538 31.3798 53.2045 31.3798C52.9364 31.3798 52.6084 31.5851 52.2205 31.9958C52.2033 32.0141 52.1859 32.0327 52.1685 32.0518C52.0688 32.1609 51.9674 32.2803 51.8641 32.4099C51.7911 32.5016 51.7171 32.5985 51.6422 32.7005L51.6306 32.7163C51.3986 33.0336 51.1578 33.4001 50.9085 33.8158C50.6617 34.2342 50.4118 34.6896 50.1589 35.1821C49.9718 35.5464 49.783 35.931 49.5925 36.3358C49.3364 36.8693 49.0895 37.415 48.8517 37.9728L48.8385 38.0038C48.7499 38.2121 48.6626 38.4222 48.5765 38.6339C48.5089 38.8002 48.4422 38.9675 48.3762 39.1358L48.3325 39.2478L48.2331 39.2406C48.1353 39.2334 48.0416 39.2262 47.9521 39.219L47.9219 39.2166L47.9146 39.216C47.8422 39.2101 47.7725 39.2042 47.7057 39.1983L47.6417 39.1926L47.6325 39.1918C47.5046 39.1802 47.3876 39.1685 47.2815 39.1569C47.2172 39.1499 47.1568 39.1428 47.1005 39.1358V39.6398C47.2498 39.6958 47.4085 39.7425 47.5765 39.7798L47.579 39.7801C47.6015 39.7826 47.6242 39.7853 47.647 39.7881L47.6803 39.7924C47.8171 39.8103 47.9598 39.8341 48.1084 39.8638C47.9434 40.3128 47.7877 40.7582 47.6413 41.2002L47.5979 41.3318C47.5489 41.4816 47.5009 41.631 47.454 41.78C47.3638 42.0664 47.2776 42.3514 47.1953 42.6349C47.1027 42.9544 47.015 43.2721 46.9325 43.5878C46.8795 43.7995 46.8313 44.0054 46.7877 44.2054C46.6152 44.4866 46.4431 44.7522 46.2714 45.0025L46.2273 45.0664C46.1642 45.1573 46.1012 45.2463 46.0382 45.3331C45.9783 45.4156 45.9185 45.4963 45.8587 45.575C45.7184 45.7599 45.5783 45.9344 45.4385 46.0985C45.2816 46.2827 45.125 46.4538 44.9688 46.6118C44.8714 46.7102 44.7742 46.8035 44.6771 46.8918C44.6163 46.9457 44.5563 46.9976 44.4973 47.0476C44.1674 47.3262 43.8647 47.5427 43.5891 47.6969L43.5819 47.701C43.2432 47.8895 42.9456 47.9838 42.6891 47.9838C42.3531 47.9838 42.1105 47.8531 41.9611 47.5918C41.9411 47.5543 41.9225 47.5168 41.9051 47.4793C41.8634 47.389 41.8295 47.2987 41.8033 47.2085C41.7982 47.1906 41.7933 47.1728 41.7888 47.155C41.7735 47.0953 41.7616 47.0355 41.7531 46.9758C41.7507 46.9591 41.7486 46.9423 41.7467 46.9256L41.7465 46.9239C41.7447 46.9067 41.7431 46.8896 41.7418 46.8724C41.7409 46.8615 41.7402 46.8505 41.7396 46.8396C41.738 46.8103 41.7371 46.7811 41.7371 46.7518C41.7371 46.6329 41.7476 46.5118 41.7687 46.3882C41.7775 46.3363 41.7882 46.2839 41.8008 46.2311C41.8428 46.0546 41.9056 45.8735 41.9891 45.6878C42.0162 45.6246 42.0438 45.5617 42.0718 45.499C42.1206 45.3898 42.171 45.2814 42.2228 45.1736C42.3257 44.9594 42.4345 44.7482 42.5491 44.5398C42.6368 44.3804 42.7211 44.2295 42.802 44.0871C42.8626 43.9803 42.9213 43.8784 42.9781 43.7812C43.023 43.7044 43.0667 43.6306 43.1091 43.5598C43.2038 43.3915 43.2718 43.2439 43.3131 43.1171C43.3451 43.0189 43.3611 42.9331 43.3611 42.8598C43.3611 42.7105 43.2958 42.5891 43.1651 42.4958C43.0345 42.4025 42.8758 42.3278 42.6891 42.2718C42.6603 42.2622 42.6323 42.2531 42.6051 42.2446C42.5624 42.2312 42.5217 42.2192 42.4831 42.2086C42.403 42.1865 42.3317 42.1702 42.2691 42.1598C42.2505 42.1598 42.2038 42.2158 42.1291 42.3278C42.0299 42.4766 41.9268 42.6294 41.8196 42.7861L41.7958 42.821L41.7692 42.8598C41.6624 43.0154 41.5518 43.1749 41.4374 43.3382C41.3401 43.4771 41.24 43.6188 41.1371 43.7632L41.1139 43.7958C41.025 43.9204 40.9341 44.0471 40.8411 44.1758C40.6598 44.4268 40.4746 44.6753 40.2855 44.9211L40.2643 44.9486C40.1754 45.0639 40.0856 45.1787 39.9949 45.2929C39.8472 45.4789 39.6973 45.6634 39.545 45.8464C39.4785 45.9263 39.4116 46.0059 39.3442 46.0852L39.3011 46.1358C39.2003 46.2546 39.0999 46.3696 38.9998 46.4807L38.9865 46.4955C38.8339 46.6645 38.6821 46.8246 38.5311 46.9758C38.3283 47.1789 38.127 47.3661 37.9271 47.5372C37.8716 47.5846 37.8163 47.6308 37.7611 47.6758C37.5957 47.8045 37.4342 47.9121 37.2768 47.9985L37.2673 48.0037C36.9487 48.1771 36.6467 48.2638 36.3611 48.2638C36.074 48.2638 35.8687 48.1457 35.7451 47.9094C35.686 47.7963 35.6456 47.6562 35.6239 47.489C35.6189 47.4504 35.6149 47.4103 35.6119 47.3687C35.6074 47.3064 35.6051 47.2407 35.6051 47.1718C35.6051 47.144 35.6054 47.116 35.606 47.0878C35.6153 46.6435 35.698 46.1502 35.8541 45.6081L35.8582 45.5935C35.8839 45.5049 35.9116 45.415 35.9411 45.3238C36.129 44.7445 36.376 44.1586 36.6821 43.5661L36.6908 43.5493C36.7469 43.441 36.8051 43.3325 36.8651 43.2238C37.2042 42.6102 37.5852 42.0385 38.0081 41.5087L38.0088 41.5079C38.0746 41.4255 38.1413 41.3441 38.2091 41.2638C38.6708 40.6995 39.1482 40.2449 39.6412 39.8999L39.6492 39.8943C39.6917 39.8646 39.7344 39.8358 39.7771 39.8078C40.3185 39.4345 40.8505 39.2478 41.3731 39.2478C41.392 39.2478 41.4107 39.248 41.4291 39.2485C41.8373 39.2583 42.143 39.377 42.3463 39.6045C42.3793 39.6414 42.4096 39.6812 42.4371 39.7238C42.4663 39.7662 42.4933 39.8098 42.5183 39.8549C42.5327 39.8807 42.5464 39.907 42.5594 39.9338L42.5719 39.9601L42.5837 39.9859C42.5911 40.0026 42.5982 40.0195 42.6051 40.0365C42.6264 40.0889 42.6452 40.1428 42.6616 40.1982L42.6674 40.2182C42.684 40.2768 42.698 40.3371 42.7093 40.3991C42.7207 40.4616 42.7293 40.5258 42.7353 40.5918C42.7419 40.6644 42.7451 40.739 42.7451 40.8158C42.7451 40.9651 42.7265 41.1331 42.6891 41.3198C42.6705 41.4878 42.6425 41.6465 42.6051 41.7958C42.6849 41.7958 42.7614 41.7926 42.8348 41.7863L42.8515 41.7848C43.1486 41.757 43.3932 41.6767 43.5851 41.5438C43.6022 41.5328 43.6188 41.5212 43.6347 41.5089C43.6644 41.4862 43.6921 41.4612 43.7178 41.4341C43.8548 41.2899 43.9374 41.0838 43.9659 40.8158C43.9716 40.7628 43.9751 40.7073 43.9765 40.6494C43.9769 40.6305 43.9771 40.6113 43.9771 40.5918C43.9771 39.9937 43.7616 39.5117 43.3306 39.1456L43.3069 39.1258C43.2881 39.1103 43.2688 39.0949 43.2491 39.0798C42.7638 38.6878 42.1571 38.4918 41.4291 38.4918C41.4105 38.4918 41.3918 38.4919 41.3731 38.4922C40.6792 38.5013 39.9768 38.6798 39.266 39.0276L39.2459 39.0375L39.2171 39.0518C38.5341 39.4021 37.8757 39.8674 37.2419 40.4477L37.2277 40.4608C37.1908 40.4947 37.1539 40.5291 37.1171 40.5638C36.5151 41.1314 35.9685 41.7625 35.4774 42.4569C35.4356 42.5161 35.3942 42.5757 35.3531 42.6358C34.8696 43.3265 34.482 44.0332 34.1901 44.7559C34.1665 44.8144 34.1435 44.8731 34.1211 44.9318C33.8225 45.6971 33.6731 46.4158 33.6731 47.0878C33.6731 47.1161 33.6734 47.1441 33.6739 47.1718C33.6882 47.9132 33.8933 48.4639 34.2891 48.8238C34.6811 49.2158 35.1665 49.4118 35.7451 49.4118C35.9521 49.4118 36.1575 49.3875 36.3611 49.3388C36.837 49.2252 37.3036 48.9789 37.7611 48.5998C37.875 48.5081 37.9907 48.4086 38.1082 48.3014C38.1352 48.2768 38.1623 48.2518 38.1894 48.2264L38.201 48.2156C38.5638 47.875 38.9441 47.4618 39.342 46.9758C39.4461 46.8486 39.5514 46.7165 39.6579 46.5794L39.6611 46.5752L39.7228 46.4954L39.7237 46.4943L39.7474 46.4634C39.8221 46.3659 39.8973 46.2661 39.9731 46.1638L39.9171 46.6118L39.9114 46.6536L39.9111 46.6561C39.9069 46.6886 39.9034 46.7205 39.9004 46.7518C39.8929 46.8302 39.8891 46.9049 39.8891 46.9758C39.8891 47.3794 39.9989 47.7572 40.2183 48.1091C40.2628 48.1804 40.3117 48.2506 40.3651 48.3198C40.3888 48.3488 40.4134 48.3767 40.4389 48.4036C40.4508 48.4163 40.463 48.4287 40.4753 48.4408C40.5206 48.4856 40.5685 48.5273 40.619 48.5659C40.9413 48.8125 41.37 48.9358 41.9051 48.9358C42.1651 48.9358 42.4264 48.9037 42.6891 48.8394C43.1056 48.7376 43.5256 48.5551 43.9491 48.2918C44.169 48.1587 44.3843 48.0095 44.5952 47.8442C44.7732 47.7047 44.948 47.5536 45.1196 47.391L45.1257 47.3852C45.3723 47.1512 45.6123 46.8934 45.8457 46.6118C45.8763 46.5749 45.9068 46.5375 45.9371 46.4998C46.0344 46.379 46.1288 46.2551 46.2205 46.1283L46.2352 46.1078C46.3414 45.9599 46.4439 45.808 46.5425 45.652C46.5249 45.809 46.5112 45.9609 46.5016 46.1078C46.4902 46.283 46.4845 46.451 46.4845 46.6118C46.4845 46.7277 46.4879 46.8399 46.4948 46.9486C46.5138 47.249 46.5592 47.5218 46.6308 47.7673C46.7017 48.0101 46.7984 48.2261 46.9208 48.4151C46.9833 48.5117 47.0525 48.6012 47.1285 48.6838C47.1581 48.7161 47.1887 48.7472 47.2202 48.7772C47.2305 48.7871 47.241 48.7969 47.2515 48.8065C47.6725 49.1914 48.2475 49.3838 48.9764 49.3838C49.2498 49.3838 49.5205 49.3602 49.7885 49.3131C50.3804 49.209 50.9591 48.9899 51.5245 48.6558C52.0591 48.3399 52.5621 47.9488 53.0334 47.4826C53.2862 47.2326 53.5299 46.961 53.7645 46.6678C54.3424 45.9648 54.8355 45.19 55.2435 44.3432L55.2485 44.3329C55.2772 44.2731 55.3055 44.213 55.3334 44.1525C55.5346 43.7627 55.7598 43.3038 56.0088 42.7758C56.0325 42.7256 56.0561 42.6752 56.0797 42.6247L56.0833 42.6171C56.2475 42.2653 56.4094 41.9065 56.569 41.5408L56.5784 41.5193C56.7106 41.2159 56.8411 40.9077 56.9701 40.5947C57.0164 40.4823 57.0625 40.3693 57.1085 40.2556C57.1906 40.0523 57.272 39.8471 57.3528 39.6398C57.4547 39.7095 57.5557 39.7815 57.656 39.8558L57.7137 39.8988C57.9428 40.071 58.1678 40.2554 58.3888 40.4518C58.4359 40.489 58.4799 40.529 58.5207 40.5717C58.5569 40.6096 58.5905 40.6496 58.6218 40.6918C58.6294 40.7021 58.6368 40.7125 58.6441 40.723C58.7466 40.8707 58.8207 41.0438 58.8662 41.2424C58.9013 41.3957 58.9195 41.5642 58.9208 41.7478L58.9208 41.7678C58.9208 41.7997 58.9203 41.8319 58.9191 41.8644C58.9149 41.9868 58.9026 42.1133 58.8823 42.2438C58.8349 42.5481 58.7438 42.8742 58.609 43.2222L58.5899 43.2709C58.5704 43.3201 58.5501 43.3697 58.5288 43.4198C58.342 43.8796 58.1497 44.345 57.9518 44.8159L57.9302 44.8673C57.8781 44.9911 57.8257 45.1152 57.7728 45.2398C57.5158 45.8455 57.3852 46.4242 57.3809 46.9758L57.3808 47.0038C57.3808 47.5451 57.5582 47.9838 57.9128 48.3198C58.1586 48.541 58.461 48.6894 58.82 48.765C59.0064 48.8042 59.208 48.8238 59.4248 48.8238C59.6701 48.8238 59.9128 48.8011 60.1528 48.7558C60.6983 48.6528 61.2303 48.4328 61.7488 48.0958C61.7927 48.068 61.8364 48.0397 61.8798 48.011L61.8899 48.0043C62.195 47.8019 62.488 47.5783 62.7687 47.3334C62.9691 47.1586 63.1632 46.9731 63.3512 46.7767C63.5123 46.6083 63.6688 46.432 63.8208 46.2478C63.9814 46.0483 64.133 45.8483 64.2758 45.6475C64.2928 45.6236 64.3097 45.5997 64.3265 45.5758L64.346 45.5478C64.3739 45.5077 64.4015 45.4676 64.4286 45.4274C64.4277 45.468 64.4272 45.5082 64.4272 45.5478L64.4273 45.5758C64.4312 46.0858 64.5432 46.5058 64.7632 46.8358C64.8267 46.9311 64.8948 47.0196 64.9673 47.1014C65.0412 47.1847 65.1198 47.2611 65.2031 47.3304C65.2661 47.3828 65.3317 47.4311 65.4 47.4755C65.4653 47.5179 65.533 47.5567 65.6032 47.5918C65.9579 47.7411 66.3125 47.8158 66.6672 47.8158C66.876 47.8158 67.0813 47.7901 67.2832 47.7387C67.4255 47.7024 67.566 47.6534 67.7048 47.5917C68.091 47.4198 68.4638 47.1492 68.8232 46.7798L68.8598 46.742L68.872 46.7294L68.8764 46.7248L68.879 46.7221C69.3011 46.2827 69.7056 45.7941 70.0926 45.2564C70.1145 45.226 70.1363 45.1954 70.1581 45.1647L70.1641 45.1562C70.3135 44.945 70.4603 44.7264 70.6044 44.5004L70.6197 44.4765C70.6651 44.405 70.7103 44.3328 70.7552 44.2598C70.7361 44.3406 70.7169 44.4209 70.6975 44.5007L70.6914 44.5259C70.619 44.824 70.5449 45.1148 70.4693 45.3983L70.464 45.4179C70.3067 46.0059 70.1425 46.5626 69.9712 47.0878L69.9233 47.2408L69.9079 47.2898C69.8642 47.4282 69.8205 47.5646 69.7768 47.6988L69.7746 47.7055L69.75 47.7811C69.6644 48.0422 69.5789 48.2953 69.4934 48.5404C69.4449 48.6792 69.3965 48.8155 69.3481 48.9492C69.2944 49.0972 69.2408 49.2421 69.1872 49.3838C69.0176 49.4686 68.8496 49.5534 68.6831 49.6382C68.5858 49.6878 68.4889 49.7375 68.3927 49.7871L68.3266 49.8212L68.297 49.8365C67.9031 50.0403 67.5185 50.244 67.1432 50.4478C66.9238 50.5669 66.7128 50.6881 66.5102 50.8115L66.5009 50.8171C66.4454 50.8509 66.3906 50.8849 66.3363 50.9191C66.0026 51.1293 65.6929 51.3456 65.4072 51.5678C65.1582 51.7614 64.9343 51.9642 64.7354 52.1761C64.5317 52.3931 64.3543 52.6197 64.2032 52.8558C63.9472 53.2558 63.8009 53.7038 63.7643 54.1998C63.7582 54.2825 63.7552 54.3665 63.7552 54.4518C63.7552 54.7423 63.8187 54.9893 63.9458 55.1929C64.031 55.3294 64.1448 55.4464 64.2872 55.5438C64.606 55.7787 64.97 55.908 65.3792 55.9318C65.4253 55.9344 65.472 55.9358 65.5192 55.9358C66.1725 55.9358 66.8072 55.6091 67.4232 54.9558C67.4985 54.8805 67.5732 54.8023 67.6475 54.7213L67.6686 54.6981C68.2124 54.0994 68.7279 53.3453 69.2152 52.4358C69.2858 52.3083 69.3556 52.1798 69.4248 52.0501C69.5167 51.8778 69.6074 51.7036 69.6968 51.5273C69.7332 51.4557 69.7693 51.3838 69.8052 51.3116C69.8628 51.1959 69.9198 51.0794 69.9763 50.962L70.0133 50.885C70.0642 50.7786 70.1146 50.6716 70.1646 50.5638C70.2704 50.3361 70.3742 50.1053 70.4762 49.8715C70.5902 49.6101 70.7019 49.3448 70.8112 49.0758C70.9787 48.9988 71.1467 48.9175 71.3153 48.8318C71.3931 48.7922 71.471 48.7517 71.549 48.7103L71.6241 48.6701C71.6779 48.6412 71.7317 48.6118 71.7856 48.582C72.1581 48.3758 72.5333 48.1484 72.9112 47.8998C73.0159 47.8281 73.119 47.7547 73.2204 47.6794C73.3491 47.5839 73.4752 47.4854 73.5986 47.384C73.7414 47.2667 73.8807 47.1455 74.0164 47.0204L74.0206 47.0165C74.2926 46.7655 74.5504 46.4987 74.7943 46.2161L74.8152 46.1918C74.8471 46.1548 74.8785 46.1175 74.9094 46.0798C74.961 46.017 75.0114 45.9532 75.0605 45.8884C75.0588 45.9521 75.058 46.0159 75.058 46.0798C75.058 46.146 75.0589 46.2114 75.0608 46.2758C75.062 46.3198 75.0637 46.3634 75.0658 46.4066L75.0659 46.4076C75.0928 46.955 75.1887 47.4333 75.3536 47.8427C75.4185 48.0038 75.4941 48.1543 75.5804 48.294C75.6612 48.4248 75.7513 48.5462 75.8508 48.6583C75.8841 48.6958 75.9186 48.7323 75.954 48.7678C76.5513 49.3651 77.298 49.6638 78.194 49.6638C78.4092 49.6638 78.6239 49.6498 78.838 49.622C79.2316 49.5707 79.6235 49.4723 80.0136 49.3268C80.3135 49.2149 80.6123 49.0753 80.91 48.9078C81.0793 48.8126 81.2459 48.7107 81.4098 48.6022L81.4159 48.5981C81.441 48.5815 81.466 48.5647 81.491 48.5477L81.5 48.5416C81.7526 48.3696 81.9988 48.1815 82.2386 47.9775C82.3958 47.8437 82.5502 47.7031 82.7019 47.5556C82.9323 47.3315 83.1563 47.0916 83.374 46.8358C83.4508 46.7436 83.526 46.6502 83.5995 46.5557C83.77 46.3361 83.9315 46.1102 84.084 45.8779L84.0868 45.8735C84.1373 45.7966 84.1867 45.7189 84.2352 45.6406C84.4855 45.2359 84.7093 44.8125 84.9066 44.3703L84.916 44.3492C84.9392 44.297 84.962 44.2445 84.9845 44.1917L84.9976 44.1606L85.0093 44.1328C85.0767 44.0195 85.1505 43.8959 85.2306 43.7621L85.2579 43.7166L85.2612 43.7111L85.2795 43.6806L85.2848 43.6718L85.3338 43.5958C85.5318 43.2873 85.742 42.9361 85.9644 42.5423L85.9694 42.5333C86.0023 42.4751 86.0354 42.4159 86.0688 42.3558C86.0571 42.4232 86.0453 42.4903 86.0335 42.5571L86.0315 42.5684C85.9867 42.8204 85.9408 43.0683 85.8935 43.3123L85.8893 43.3343C85.8513 43.5299 85.8126 43.7228 85.7731 43.9132L85.7635 43.959L85.7591 43.9801L85.7519 44.0146C85.7241 44.1471 85.6958 44.2784 85.6672 44.4083L85.6583 44.4489L85.6446 44.5105L85.6384 44.5382L85.6092 44.668L85.5914 44.7459C85.5772 44.8079 85.5629 44.8695 85.5485 44.9309C85.4465 45.3661 85.34 45.7864 85.2288 46.1918C85.2124 46.2505 85.196 46.3089 85.1795 46.367C85.1654 46.4164 85.1513 46.4656 85.1371 46.5146C85.117 46.5843 85.0967 46.6535 85.0763 46.7223C85.0212 46.9083 84.9652 47.0909 84.9085 47.27L84.8929 47.3192L84.8631 47.4118C84.8497 47.4535 84.8362 47.495 84.8227 47.5363C84.7842 47.6539 84.7453 47.7698 84.7061 47.8842L84.6896 47.9321L84.6834 47.9501C84.6012 48.1876 84.5175 48.4184 84.4323 48.6423L84.4279 48.6539C84.3508 48.856 84.2724 49.0527 84.1928 49.2438C83.9635 49.3645 83.7498 49.4734 83.5517 49.5707L83.4752 49.6081C83.4412 49.6246 83.4078 49.6407 83.3749 49.6565L83.3085 49.688L83.2408 49.7198C83.1835 49.7449 83.1268 49.7703 83.0709 49.7961C82.8353 49.9046 82.612 50.0191 82.4008 50.1398C82.1953 50.2556 81.9972 50.3763 81.8067 50.5019C81.5927 50.6429 81.3881 50.7901 81.1929 50.9434C81.138 50.9865 81.0839 51.03 81.0306 51.0741C80.7321 51.3206 80.4569 51.5822 80.205 51.859L80.1993 51.8652C80.0886 51.9871 79.9824 52.112 79.8808 52.2398C79.2718 52.9841 78.9388 53.6748 78.8817 54.3118C78.8757 54.3777 78.8728 54.443 78.8728 54.5078C78.8728 54.8305 78.9535 55.107 79.1148 55.3375C79.129 55.3578 79.1438 55.3777 79.1593 55.3973C79.1917 55.4384 79.2269 55.4779 79.2648 55.5158C79.4617 55.743 79.7324 55.878 80.0768 55.9209C80.1568 55.9308 80.2408 55.9358 80.3288 55.9358C81.0941 55.9358 81.8128 55.6091 82.4848 54.9558C82.5774 54.8631 82.669 54.7666 82.7594 54.666L82.7611 54.6641C83.3075 54.0561 83.8127 53.304 84.2768 52.4078C84.3386 52.2924 84.3995 52.1763 84.4595 52.0595C84.5118 51.9578 84.5633 51.8557 84.6142 51.753C84.6817 51.6167 84.748 51.4795 84.813 51.3414C84.8472 51.2689 84.881 51.1961 84.9145 51.1231C84.9562 51.0323 84.9973 50.9411 85.0379 50.8495C85.0578 50.8048 85.0775 50.7599 85.0971 50.715C85.231 50.4079 85.3592 50.0965 85.4816 49.7808C85.5682 49.5573 85.6519 49.3316 85.7328 49.1038C85.9126 48.9994 86.0968 48.8932 86.2856 48.7852C86.378 48.7324 86.4715 48.6791 86.5661 48.6254L86.7006 48.5491L86.762 48.5143C87.0355 48.3597 87.3178 48.2015 87.6088 48.0398C87.7221 47.9768 87.8349 47.9102 87.9471 47.8398C88.0743 47.7601 88.2007 47.6756 88.3265 47.5863L88.3574 47.5643C88.7685 47.2698 89.1723 46.9243 89.5688 46.5278C89.5873 46.5093 89.6057 46.4906 89.624 46.4718C89.6425 46.4528 89.6609 46.4336 89.6793 46.4143L89.6861 46.407C89.7734 46.3146 89.8588 46.218 89.9426 46.1173C90.0548 45.9824 90.164 45.8401 90.27 45.6904C90.2456 45.8588 90.2282 46.0165 90.2179 46.1638C90.2103 46.2722 90.2065 46.3748 90.2065 46.4718C90.2065 46.6349 90.2175 46.7917 90.2396 46.942L90.2456 46.9805C90.2613 47.0785 90.2818 47.1737 90.3071 47.2661C90.343 47.3973 90.3885 47.5228 90.4435 47.6429C90.5222 47.8145 90.6205 47.9748 90.7384 48.1238C90.7468 48.1348 90.7552 48.1456 90.7637 48.1563C90.8945 48.3203 91.0495 48.4541 91.2286 48.5576C91.5356 48.7351 91.9135 48.8238 92.3624 48.8238C92.6838 48.8238 93.0011 48.7873 93.3145 48.7142C94.0752 48.5367 94.8125 48.144 95.5265 47.5358C95.5967 47.4771 95.6658 47.4166 95.7337 47.3544L95.7395 47.349C96.6622 46.5019 97.3752 45.3322 97.8784 43.8398L97.6264 43.5598C97.5981 43.6159 97.5698 43.6713 97.5415 43.7262C97.3935 44.0135 97.2468 44.2845 97.1014 44.5392C96.4884 45.6127 95.8981 46.397 95.3305 46.8918C95.2636 46.9516 95.1971 47.0086 95.1309 47.0628L95.1265 47.0663C94.492 47.5846 93.888 47.8438 93.3145 47.8438C92.9026 47.8438 92.5853 47.7566 92.3624 47.5821C92.3328 47.5589 92.3048 47.5341 92.2785 47.5078C92.1867 47.416 92.1137 47.2867 92.0596 47.1198C92.056 47.1087 92.0525 47.0976 92.0491 47.0862C91.9984 46.9176 91.9657 46.7128 91.9512 46.4718C91.9454 46.375 91.9425 46.2723 91.9425 46.1638C91.9425 46.0875 91.9444 46.0108 91.9482 45.9337C91.9494 45.9088 91.9509 45.8838 91.9525 45.8588ZM82.7327 50.7207C82.805 50.6788 82.8786 50.6369 82.9534 50.5952C83.0306 50.5521 83.1092 50.5092 83.1891 50.4663C83.2895 50.4125 83.3922 50.3588 83.4969 50.3053L83.5107 50.2982C83.6146 50.2453 83.7207 50.1924 83.8288 50.1398C83.7636 50.2836 83.6985 50.4242 83.6336 50.5615L83.6208 50.5885C83.4704 50.906 83.3207 51.2062 83.1718 51.4891L83.1668 51.4988C83.1231 51.5817 83.0795 51.6631 83.0359 51.743L83.0265 51.7603C82.9238 51.9484 82.8214 52.1282 82.7195 52.2997C82.6323 52.4464 82.5453 52.587 82.4587 52.7215C82.2821 52.9957 82.1067 53.2447 81.9325 53.4684L81.9183 53.4866C81.8456 53.5794 81.7731 53.6678 81.7008 53.7518C81.6393 53.823 81.5791 53.8911 81.5201 53.9561L81.5166 53.96L81.5035 53.9745C81.3906 54.0983 81.2824 54.2107 81.1789 54.3118C80.8479 54.6349 80.5645 54.8415 80.3288 54.9316C80.2377 54.9664 80.1537 54.9838 80.0768 54.9838C80.0196 54.9838 79.9659 54.9731 79.9158 54.9516C79.8963 54.9432 79.8774 54.9332 79.859 54.9216C79.8167 54.8949 79.7773 54.8596 79.7408 54.8158C79.6751 54.7501 79.6325 54.6474 79.6131 54.5078C79.6049 54.449 79.6008 54.3837 79.6008 54.3118C79.6008 53.9123 79.7595 53.4793 80.0768 53.013L80.0968 52.9839C80.176 52.8694 80.2648 52.7529 80.3631 52.6344L80.3686 52.6278L80.3795 52.6148L80.3815 52.6124C80.4686 52.5084 80.5631 52.4029 80.6648 52.2958C81.1633 51.7568 81.8515 51.2325 82.7293 50.7227L82.7327 50.7207ZM68.9072 50.0558C68.6843 50.6073 68.4648 51.109 68.2486 51.5608C68.2049 51.6521 68.1614 51.7413 68.118 51.8284L68.1103 51.8439C68.0766 51.9116 68.0429 51.978 68.0093 52.0432C67.9563 52.1461 67.9034 52.2459 67.8508 52.3427C67.789 52.4563 67.7275 52.5658 67.6662 52.671L67.6463 52.705C67.4852 52.9796 67.3261 53.2247 67.1689 53.4405C67.0377 53.6208 66.9077 53.7805 66.7792 53.9198C66.7289 53.9772 66.6798 54.0325 66.6317 54.0855L66.6195 54.0989L66.5942 54.1267L66.5708 54.1521L66.5267 54.1998C66.0955 54.6619 65.7597 54.9333 65.5192 55.0141C65.4683 55.0312 65.4216 55.0398 65.3792 55.0398C65.1325 55.0398 64.951 54.9601 64.8347 54.8007C64.828 54.7915 64.8215 54.7819 64.8152 54.7722C64.8068 54.7592 64.7988 54.7457 64.7912 54.7318C64.7367 54.6318 64.6954 54.5385 64.6674 54.4518C64.6379 54.3604 64.6232 54.2764 64.6232 54.1998C64.6232 53.8571 64.6839 53.5375 64.8052 53.2411C64.8208 53.2029 64.8374 53.1651 64.855 53.1277C64.8806 53.0734 64.9084 53.0198 64.9383 52.9671C65.0152 52.8313 65.1061 52.7009 65.2112 52.5758C65.3475 52.4135 65.4996 52.2547 65.6674 52.0992C65.6969 52.072 65.7268 52.0448 65.7572 52.0178C66.0521 51.7553 66.3928 51.5027 66.7792 51.2598C66.9773 51.1409 67.1806 51.0212 67.389 50.9006C67.565 50.7988 67.7447 50.6963 67.928 50.5933C67.9906 50.5581 68.0536 50.5228 68.1171 50.4875C68.3735 50.3448 68.6368 50.2009 68.9072 50.0558Z" fill="black"/>
<path d="M97.2905 33.8158C97.1225 33.6851 96.8985 33.6198 96.6185 33.6198C96.1705 33.6198 95.7131 33.7691 95.2465 34.0678C94.7985 34.3478 94.5744 34.6838 94.5744 35.0758C94.5744 35.3931 94.6865 35.6265 94.9105 35.7758C95.1531 35.9251 95.4238 35.9998 95.7225 35.9998C96.1704 35.9998 96.5811 35.8411 96.9545 35.5238C97.3465 35.1878 97.5424 34.8425 97.5424 34.4878C97.5424 34.1705 97.4585 33.9465 97.2905 33.8158Z" fill="black"/>
<path d="M88.9528 33.4798C89.2141 33.4798 89.4288 33.5451 89.5968 33.6758C89.7835 33.8065 89.8768 34.0025 89.8768 34.2638C89.8768 34.6745 89.6808 35.0478 89.2888 35.3838C88.9155 35.7011 88.4955 35.8598 88.0288 35.8598C87.7301 35.8598 87.4688 35.7851 87.2448 35.6358C87.0208 35.4865 86.9088 35.2625 86.9088 34.9638C86.9088 34.6838 87.0115 34.4318 87.2168 34.2078C87.4408 33.9838 87.7115 33.8065 88.0288 33.6758C88.3461 33.5451 88.6541 33.4798 88.9528 33.4798Z" fill="black"/>
<path fill-rule="evenodd" clip-rule="evenodd" d="M12.2944 57C9.7417 57 7.71212 56.487 6.20563 55.461C4.69913 54.4796 3.61111 53.2528 2.94156 51.7807C2.31385 50.3086 2 48.881 2 47.4981C2 46.3383 2.18831 45.223 2.56494 44.1524C2.94156 43.0372 3.50649 42.1227 4.25974 41.4089C5.01299 40.6506 5.95455 40.2714 7.08442 40.2714H7.64935C7.85859 40.2714 8.0469 40.2937 8.21429 40.3383C7.62843 40.8736 7.14719 41.7658 6.77056 43.0149C6.39394 44.2193 6.20563 45.4015 6.20563 46.5613C6.20563 47.9442 6.47763 49.2825 7.02164 50.5762C7.56566 51.8253 8.33983 52.8513 9.34416 53.6543C10.3485 54.4573 11.5202 54.8587 12.8593 54.8587C14.5332 54.8587 16.1443 54.2342 17.6926 52.9851C18.6163 52.24 19.4431 51.3203 20.1732 50.2259C20.4283 50.9473 20.9406 51.5084 21.5422 51.8913C22.1445 52.2746 22.8115 52.5111 23.5215 52.5771C22.2085 53.7693 20.7258 54.7529 19.0736 55.5279C17.0231 56.5093 14.7633 57 12.2944 57ZM23.7523 37.2513C23.5081 37.9488 23.2641 38.6563 23.0201 39.3736C22.9757 37.8261 22.7482 36.2964 22.3377 34.7844C21.9192 33.0892 21.2078 31.6171 20.2035 30.368C19.1991 29.0744 17.8182 28.1822 16.0606 27.6915C18.1111 26.71 19.8896 25.3048 21.3961 23.4758C22.9444 21.6022 24.1371 19.5725 24.974 17.3866C25.811 15.2007 26.2294 13.171 26.2294 11.2974C26.2294 8.93309 25.6436 7.26022 24.4719 6.27881C23.342 5.2974 22.0447 4.80669 20.5801 4.80669C19.4084 4.80669 18.2785 5.09666 17.1905 5.67658C16.1025 6.2119 15.2027 7.01487 14.4913 8.0855C13.7799 9.15613 13.4242 10.4721 13.4242 12.0335C13.4242 12.7026 13.5079 13.4387 13.6753 14.2416C13.8427 15 14.0938 15.7584 14.4286 16.5167C14.2193 16.9628 13.8636 17.3866 13.3615 17.7881C12.8593 18.1896 12.3781 18.3903 11.9177 18.3903C11.4156 18.3903 10.9762 18.1227 10.5996 17.5874C10.2648 17.0074 10.0137 16.316 9.84632 15.513C9.67893 14.6654 9.59524 13.8625 9.59524 13.1041C9.59524 10.9182 10.1811 9.08922 11.3528 7.6171C12.5245 6.10037 14.0101 4.96282 15.8095 4.20446C17.6089 3.40149 19.4502 3 21.3333 3C23.0072 3 24.5765 3.31227 26.0411 3.9368C27.5058 4.56134 28.6984 5.52045 29.619 6.81413C30.5397 8.0632 31 9.66914 31 11.632C31 12.5609 30.8834 13.5165 30.6501 14.4987C30.6088 14.4424 30.5632 14.3877 30.5127 14.3351C30.132 13.9142 29.6115 13.82 29.22 13.82C28.7841 13.82 28.3701 13.9308 27.9899 14.1355C27.6962 14.2937 27.3984 14.4939 27.1727 14.7572L26.932 15.0381V15.408C26.932 15.9173 26.8464 16.5406 26.6552 17.2882L26.6525 17.2988L26.65 17.3095C26.4698 18.0843 26.2628 18.85 26.0289 19.6066C25.7721 20.359 25.5509 21.0131 25.3657 21.5686C25.2635 21.8386 25.1814 22.0695 25.123 22.2552C25.0933 22.3497 25.0662 22.4438 25.0456 22.5318C25.0291 22.6022 25 22.736 25 22.884C25 23.2894 25.2072 23.5754 25.3629 23.7311C25.3702 23.7384 25.3776 23.7457 25.3851 23.7528C25.0314 24.0987 24.6643 24.4302 24.2835 24.7472C22.9863 25.8178 21.5635 26.5762 20.0152 27.0223C21.0652 27.2925 22.0133 27.642 22.8597 28.0708L22.52 28.2145V29.54C22.52 30.3751 22.9786 30.9548 23.1695 31.1776L23.2195 31.2359L23.2738 31.2902C23.4648 31.4812 23.6705 31.655 23.8895 31.8115L24.0172 31.9027L24.1577 31.9729C24.3229 32.0555 24.8039 32.296 25.388 32.296C25.4598 32.296 25.5298 32.2923 25.5973 32.2859C25.5427 32.4208 25.4886 32.5553 25.435 32.6892L25.431 32.6993L25.4271 32.7094C24.8406 34.223 24.2823 35.7369 23.7523 37.2513ZM28.8118 41.8083C28.9773 41.7937 29.1467 41.7763 29.3197 41.7564C29.1387 43.2355 28.7363 44.7033 28.1126 46.1599C27.6416 47.2894 27.0581 48.3554 26.3619 49.3578C26.6474 48.3381 26.9469 47.2475 27.2604 46.0863C27.6533 44.6831 28.0569 43.2639 28.4711 41.8286C28.5623 41.8236 28.6564 41.8183 28.7534 41.8125L28.7826 41.8108L28.8118 41.8083Z" fill="black"/>
<path fill-rule="evenodd" clip-rule="evenodd" d="M77.6878 23.304C78.1171 23.7707 78.7331 24.004 79.5358 24.004C80.4131 24.004 81.2624 23.7613 82.0838 23.276C82.9051 22.7907 83.6518 22.128 84.3238 21.288C84.6639 20.8743 84.9746 20.4357 85.2559 19.9722C85.2534 20.0387 85.2522 20.104 85.2522 20.168C85.2522 20.6907 85.3642 21.12 85.5882 21.456C85.8122 21.792 86.0922 22.044 86.4282 22.212C86.7828 22.3613 87.1375 22.436 87.4922 22.436C88.2575 22.436 88.9762 22.0907 89.6482 21.4C90.3388 20.6907 90.9828 19.8507 91.5802 18.88C91.3375 19.9067 91.0762 20.8493 90.7962 21.708C90.5348 22.548 90.2735 23.3133 90.0122 24.004C89.3028 24.3587 88.6215 24.7133 87.9682 25.068C87.3148 25.4227 86.7362 25.796 86.2322 26.188C85.7282 26.58 85.3268 27.0093 85.0282 27.476C84.7295 27.9427 84.5802 28.4747 84.5802 29.072C84.5802 29.5573 84.7575 29.9213 85.1122 30.164C85.4668 30.4253 85.8775 30.556 86.3442 30.556C86.9975 30.556 87.6322 30.2293 88.2482 29.576C88.8828 28.9413 89.4802 28.1013 90.0402 27.056C90.6188 26.0107 91.1508 24.8907 91.6362 23.696C92.3268 23.3787 93.0268 22.9867 93.7362 22.52C94.4455 22.0347 95.0802 21.4653 95.6402 20.812C96.2188 20.14 96.6482 19.356 96.9282 18.46L96.5642 18.18C96.0415 19.468 95.3602 20.504 94.5202 21.288C93.6802 22.0533 92.8215 22.604 91.9442 22.94C92.3922 21.8013 92.7748 20.6907 93.0922 19.608C93.4282 18.5253 93.6802 17.5827 93.8482 16.78C94.0348 15.9587 94.1282 15.3987 94.1282 15.1C94.0162 15.0627 93.9135 15.044 93.8202 15.044C93.7268 15.0253 93.6335 15.016 93.5402 15.016C93.0735 15.016 92.7282 15.1933 92.5042 15.548C92.2988 15.884 92.1682 16.1827 92.1122 16.444C92.0748 16.668 92.0282 16.892 91.9722 17.116C91.9348 17.3213 91.8882 17.5267 91.8322 17.732C91.4588 18.348 91.0482 18.9267 90.6002 19.468C90.1708 20.0093 89.7322 20.4573 89.2842 20.812C88.8548 21.148 88.4628 21.316 88.1082 21.316C87.7348 21.316 87.4735 21.2133 87.3242 21.008C87.1748 20.8027 87.1002 20.532 87.1002 20.196C87.1002 19.8227 87.1655 19.3747 87.2962 18.852C87.4268 18.3293 87.5855 17.7973 87.7722 17.256C87.9775 16.696 88.1828 16.192 88.3882 15.744C88.5935 15.296 88.7802 14.9507 88.9482 14.708C88.9482 14.596 88.8548 14.4933 88.6682 14.4C88.5002 14.288 88.3135 14.204 88.1082 14.148C87.9215 14.092 87.7908 14.064 87.7162 14.064C87.5108 14.064 87.2682 14.2787 86.9882 14.708C86.7082 15.1373 86.4375 15.6787 86.1762 16.332C85.9148 16.9853 85.6908 17.6573 85.5042 18.348C85.4799 18.4478 85.4574 18.5458 85.4366 18.6421C84.7817 19.9004 84.0374 20.9131 83.2038 21.68C82.2704 22.5387 81.3184 22.968 80.3478 22.968C79.7878 22.968 79.3864 22.8 79.1438 22.464C78.9011 22.1093 78.7798 21.5307 78.7798 20.728C78.7798 19.7387 78.9291 18.7213 79.2278 17.676C79.5264 16.6307 79.8904 15.6133 80.3198 14.624H80.5158H80.7398C81.3744 14.624 82.0931 14.596 82.8958 14.54C83.7171 14.484 84.6411 14.4 85.6678 14.288V13.784C84.9771 13.8587 84.2864 13.9053 83.5958 13.924C82.9238 13.9427 82.2798 13.952 81.6638 13.952H81.1318H80.6278C81.1691 12.7947 81.7291 11.7213 82.3078 10.732C82.8864 9.74267 83.3718 8.89333 83.7638 8.184C84.1558 7.456 84.3518 6.93333 84.3518 6.616C84.3518 6.41067 84.2864 6.26133 84.1558 6.168C84.0438 6.056 83.9131 6 83.7638 6C83.4838 6 83.1384 6.224 82.7278 6.672C82.3358 7.10133 81.9158 7.68933 81.4678 8.436C81.0384 9.164 80.5998 10.004 80.1518 10.956C79.7038 11.8893 79.2838 12.86 78.8918 13.868C78.6304 13.8493 78.3971 13.8307 78.1918 13.812C77.9864 13.7933 77.8091 13.7747 77.6598 13.756V14.26C77.8091 14.316 77.9678 14.3627 78.1358 14.4C78.3038 14.4187 78.4811 14.4467 78.6678 14.484C78.2011 15.7533 77.8091 16.9947 77.4918 18.208C77.4381 18.4228 77.3892 18.6317 77.3451 18.8344C76.9796 19.5137 76.5761 20.1169 76.1344 20.644C75.5558 21.316 74.9864 21.8293 74.4264 22.184C73.8664 22.5387 73.3904 22.716 72.9984 22.716C72.6624 22.716 72.4198 22.6133 72.2704 22.408C72.1398 22.2027 72.0744 21.932 72.0744 21.596C72.0744 21.1293 72.1678 20.588 72.3544 19.972C72.5411 19.356 72.7558 18.7493 72.9984 18.152C73.2598 17.536 73.4838 17.0227 73.6704 16.612C73.8571 16.1827 73.9504 15.9307 73.9504 15.856C73.9504 15.688 73.8571 15.5573 73.6704 15.464C73.5024 15.3707 73.3064 15.296 73.0824 15.24C72.8771 15.184 72.7184 15.1467 72.6064 15.128C72.4011 15.5387 72.1398 16.052 71.8224 16.668C71.5238 17.284 71.1971 17.928 70.8424 18.6C70.4878 19.272 70.1144 19.8973 69.7224 20.476C69.3491 21.0547 68.9758 21.5307 68.6024 21.904C68.2291 22.2587 67.8651 22.436 67.5104 22.436C67.2118 22.436 66.9878 22.3147 66.8384 22.072C66.6891 21.8293 66.5958 21.5587 66.5584 21.26C66.5211 20.9427 66.5024 20.7093 66.5024 20.56C66.5024 19.9253 66.6144 19.2347 66.8384 18.488C67.0624 17.7413 67.3238 17.0413 67.6224 16.388C67.9211 15.7347 68.1731 15.2493 68.3784 14.932C68.2291 14.764 68.0424 14.6333 67.8184 14.54C67.5944 14.428 67.4358 14.372 67.3424 14.372C67.1371 14.372 66.8944 14.596 66.6144 15.044C66.3344 15.492 66.0638 16.0613 65.8024 16.752C65.5695 17.3676 65.3662 17.9906 65.1926 18.6211C64.9095 19.1612 64.5918 19.6955 64.2395 20.224C63.8101 20.896 63.3621 21.456 62.8955 21.904C62.4288 22.3333 61.9621 22.548 61.4955 22.548C61.2528 22.548 61.0475 22.4733 60.8795 22.324C60.7301 22.156 60.6555 21.876 60.6555 21.484C60.6555 21.0173 60.7488 20.56 60.9355 20.112C61.1408 19.6453 61.3368 19.1693 61.5235 18.684C61.7101 18.18 61.8035 17.6387 61.8035 17.06C61.8035 16.4253 61.6355 15.8467 61.2995 15.324C60.9821 14.8013 60.4595 14.54 59.7315 14.54C59.0221 14.54 58.3128 14.792 57.6035 15.296C56.8941 15.8 56.2221 16.4347 55.5875 17.2C54.9715 17.9467 54.4115 18.7027 53.9075 19.468C54.1688 18.7027 54.3835 17.9747 54.5515 17.284C54.7195 16.5747 54.8035 16.0707 54.8035 15.772C54.8035 15.2867 54.5515 15.044 54.0475 15.044C53.7861 15.044 53.5341 15.1093 53.2915 15.24C53.0488 15.3707 52.8715 15.5013 52.7595 15.632C52.7595 16.248 52.6568 16.9293 52.4515 17.676C52.3815 17.9306 52.3082 18.183 52.2317 18.4332C51.4762 19.8854 50.7542 20.9116 50.0656 21.512C49.3562 22.1467 48.6842 22.464 48.0496 22.464C47.5829 22.464 47.2376 22.352 47.0136 22.128C46.7896 21.904 46.6776 21.456 46.6776 20.784C46.6776 20.1307 46.8176 19.4493 47.0976 18.74C47.3962 18.012 47.7416 17.3213 48.1336 16.668C48.5256 16.0147 48.8616 15.436 49.1416 14.932C49.4402 14.428 49.5896 14.064 49.5896 13.84C49.5896 13.6347 49.5242 13.4853 49.3936 13.392C49.2816 13.28 49.1416 13.224 48.9736 13.224C48.6002 13.224 48.2176 13.4293 47.8256 13.84C47.4336 14.232 47.0602 14.7453 46.7056 15.38C46.3696 16.0147 46.0709 16.696 45.8096 17.424C45.6521 17.8513 45.5117 18.2684 45.3881 18.6753C45.1741 19.1604 45.0512 19.3724 44.8301 19.7538C44.7619 19.8714 44.6844 20.0052 44.592 20.168C44.2 20.84 43.7707 21.4187 43.304 21.904C42.856 22.3707 42.3707 22.604 41.848 22.604C41.5307 22.604 41.3067 22.5107 41.176 22.324C41.064 22.1187 41.008 21.8947 41.008 21.652C41.008 21.26 41.092 20.7933 41.26 20.252C41.4467 19.7107 41.624 19.1507 41.792 18.572C41.96 17.9933 42.044 17.4613 42.044 16.976C42.044 16.4907 41.9227 16.0707 41.68 15.716C41.456 15.3613 41.0453 15.184 40.448 15.184C39.8133 15.184 39.216 15.3987 38.656 15.828C38.096 16.2387 37.5733 16.78 37.088 17.452C36.6213 18.1053 36.192 18.7867 35.8 19.496C35.912 19.2347 36.0333 18.8893 36.164 18.46C36.2947 18.012 36.4067 17.536 36.5 17.032C36.612 16.5093 36.668 16.0147 36.668 15.548C36.668 14.9693 36.556 14.4747 36.332 14.064C36.1267 13.6347 35.7347 13.42 35.156 13.42C34.652 13.42 34.1293 13.588 33.588 13.924C33.0653 14.2413 32.5427 14.6613 32.02 15.184C31.4973 15.7066 30.9933 16.2853 30.508 16.92C30.0413 17.536 29.6213 18.1427 29.248 18.74C29.4533 18.0307 29.6213 17.3867 29.752 16.808C29.9013 16.2106 29.976 15.7906 29.976 15.548C29.976 15.324 29.9107 15.1467 29.78 15.016C29.668 14.8853 29.4813 14.82 29.22 14.82C28.9587 14.82 28.7067 14.8853 28.464 15.016C28.2213 15.1467 28.044 15.2773 27.932 15.408C27.932 16.024 27.8293 16.7333 27.624 17.536C27.4373 18.3387 27.2227 19.132 26.98 19.916C26.7187 20.6813 26.4947 21.344 26.308 21.904C26.1027 22.4453 26 22.772 26 22.884C26 22.9773 26.0933 23.0707 26.28 23.164C26.448 23.2573 26.6533 23.332 26.896 23.388C27.1387 23.444 27.344 23.472 27.512 23.472C27.848 22.52 28.2867 21.568 28.828 20.616C29.388 19.6453 29.976 18.7587 30.592 17.956C31.208 17.1533 31.8053 16.5093 32.384 16.024C32.9627 15.52 33.4573 15.268 33.868 15.268C34.1293 15.268 34.3067 15.3707 34.4 15.576C34.512 15.7627 34.568 16.0147 34.568 16.332C34.568 16.8173 34.4747 17.4053 34.288 18.096C34.12 18.768 33.9147 19.44 33.672 20.112C33.448 20.7653 33.2427 21.344 33.056 21.848C32.888 22.3333 32.804 22.6413 32.804 22.772C32.804 22.9027 32.888 23.0053 33.056 23.08C33.2427 23.1733 33.448 23.2387 33.672 23.276C33.896 23.3133 34.0827 23.332 34.232 23.332C34.4187 22.9587 34.6147 22.548 34.82 22.1C35.0253 21.6333 35.2773 21.176 35.576 20.728C36.4533 19.4026 37.1627 18.376 37.704 17.648C38.264 16.92 38.7773 16.556 39.244 16.556C39.4493 16.556 39.636 16.6307 39.804 16.78C39.972 16.9293 40.056 17.1907 40.056 17.564C40.056 17.9187 39.9813 18.32 39.832 18.768C39.7013 19.216 39.5613 19.6733 39.412 20.14C39.2813 20.6067 39.216 21.0733 39.216 21.54C39.216 22.1 39.3653 22.576 39.664 22.968C39.9627 23.3787 40.4387 23.584 41.092 23.584C41.8387 23.584 42.52 23.332 43.136 22.828C43.7707 22.324 44.3213 21.6893 44.788 20.924C44.8593 20.8042 44.9178 20.7054 44.9669 20.6211C44.95 20.7907 44.9416 20.9477 44.9416 21.092C44.9416 21.7453 45.1189 22.296 45.4736 22.744C45.8282 23.2107 46.3696 23.444 47.0976 23.444C48.1989 23.444 49.2536 23.0147 50.2616 22.156C50.6473 21.8333 50.9988 21.458 51.3161 21.0299C51.2315 21.2545 51.1526 21.4618 51.0795 21.652C50.8741 22.1373 50.7715 22.4267 50.7715 22.52C50.9208 22.7253 51.1355 22.8747 51.4155 22.968C51.6768 23.08 51.9568 23.136 52.2555 23.136C52.6288 22.52 53.0581 21.82 53.5435 21.036C54.0288 20.252 54.5515 19.496 55.1115 18.768C55.6715 18.0213 56.2501 17.4147 56.8475 16.948C57.4448 16.4627 58.0328 16.22 58.6115 16.22C58.9288 16.22 59.1901 16.3227 59.3955 16.528C59.6195 16.7147 59.7315 17.0693 59.7315 17.592C59.7315 18.0213 59.6661 18.4693 59.5355 18.936C59.4048 19.384 59.2648 19.8227 59.1155 20.252C58.9848 20.6813 58.9195 21.092 58.9195 21.484C58.9195 22.0067 59.0781 22.436 59.3955 22.772C59.7315 23.108 60.2261 23.276 60.8795 23.276C61.5888 23.276 62.2328 23.0707 62.8115 22.66C63.3901 22.2493 63.9221 21.6893 64.4075 20.98C64.5786 20.7299 64.7439 20.467 64.9034 20.1914C64.8868 20.3786 64.8784 20.5575 64.8784 20.728C64.8784 21.4747 65.0651 22.1373 65.4384 22.716C65.8304 23.276 66.3438 23.556 66.9784 23.556C67.4451 23.556 67.8931 23.3973 68.3224 23.08C68.7518 22.7627 69.1624 22.3427 69.5544 21.82C69.9464 21.2787 70.3104 20.7 70.6464 20.084C70.5904 20.3267 70.5438 20.5693 70.5064 20.812C70.4691 21.036 70.4504 21.26 70.4504 21.484C70.4504 21.8573 70.5064 22.2027 70.6184 22.52C70.7491 22.8373 70.9544 23.0893 71.2344 23.276C71.5331 23.4627 71.9251 23.556 72.4104 23.556C73.0824 23.556 73.7731 23.3413 74.4824 22.912C75.1918 22.4827 75.8638 21.8853 76.4984 21.12C76.7129 20.8551 76.9135 20.5774 77.1002 20.2869C77.0626 20.6255 77.0438 20.9405 77.0438 21.232C77.0438 22.1467 77.2584 22.8373 77.6878 23.304ZM87.6042 28.54C86.9508 29.2867 86.4842 29.66 86.2042 29.66C85.9242 29.66 85.7282 29.5573 85.6162 29.352C85.5042 29.1467 85.4482 28.9693 85.4482 28.82C85.4482 28.204 85.6442 27.6627 86.0362 27.196C86.4282 26.7293 86.9508 26.2907 87.6042 25.88C88.2575 25.488 88.9668 25.0867 89.7322 24.676C88.9855 26.524 88.2762 27.812 87.6042 28.54ZM50.4576 10.62C50.1589 10.62 49.8882 10.5453 49.6456 10.396C49.4216 10.2467 49.3096 10.0133 49.3096 9.69599C49.3096 9.30399 49.5336 8.96799 49.9816 8.68799C50.4482 8.38932 50.9056 8.23999 51.3536 8.23999C51.6336 8.23999 51.8576 8.30532 52.0256 8.43599C52.1936 8.56666 52.2776 8.79066 52.2776 9.10799C52.2776 9.46266 52.0816 9.80799 51.6896 10.144C51.3162 10.4613 50.9056 10.62 50.4576 10.62Z" fill="black"/>
</svg>
